<svg width="3198.049183289035" height="858.0010219634347" xmlns="http://www.w3.org/2000/svg">
 <g>
  <title>background</title>
  <rect fill="none" id="canvas_background" height="402" width="582" y="-1" x="-1"/>
 </g>
 <g>
  <title>Layer 1</title>
  <g id="svg_1">

   <g fill="#6356e5" transform="matrix(31.2826, 0, 0, 31.2826, 78.0328, -60.8066)" id="SvgjsG1293">
    <path id="svg_2" d="m12.97104,17.677503l1.66,0l0,3.78l-3.18,0l0,-1.02l-7.62,0l0,1.02l-3.16,0l0,-3.78l1.4,0c0.84,-1.2 0.82,-3.22 0.82,-5.64l0,-2l3.16,0l6.92,0l0,7.64zm-7.78,0l4.62,0l0,-4.88l-3.76,0c0,2.08 -0.08,3.82 -0.86,4.88zm21.16,-7.64l0,10.4l-3.16,0l0,-4.84l-6.48,4.84l-0.46,0l0,-10.4l3.16,0l0,4.84l6.48,-4.84l0.46,0zm8.76,0l3.16,0l0,10.4l-3.16,0l0,-3.6l-3.56,0l0,3.6l-3.16,0l0,-10.4l3.16,0l0,4.04l3.56,0l0,-4.04zm12.68,0l3.16,0l0,10.4l-3.16,0l0,-1.04c-0.14,0.36 -1.08,1.24 -2.68,1.24c-2.38,0 -5.12,-1.7 -5.12,-5.42c0,-3.58 2.74,-5.36 5.12,-5.36c1.6,0 2.54,0.92 2.68,1.14l0,-0.96zm-2.22,7.82c1.3,0 2.36,-0.9 2.36,-2.64c0,-1.68 -1.06,-2.58 -2.36,-2.58c-1.36,0 -2.52,0.92 -2.52,2.58c0,1.72 1.16,2.64 2.52,2.64zm12.54,-8c1.9,0 3.5,0.8 4.48,2.48l-2.4,1.14c-0.52,-0.44 -0.94,-0.84 -2.04,-0.84c-1.2,0 -2.42,0.92 -2.42,2.62c0,1.68 1.22,2.56 2.42,2.56c1.1,0 1.52,-0.36 2.04,-0.8l2.44,1.14c-1.02,1.68 -2.58,2.44 -4.52,2.44c-2.32,0 -5.44,-1.66 -5.44,-5.34c0,-3.62 3.12,-5.4 5.44,-5.4zm14.2,0.18l0,2.76l-2.68,0l0,7.64l-3.16,0l0,-7.64l-2.64,0l0,-2.76l5.8,0l2.68,0zm11.72,0l0,10.4l-3.16,0l0,-4.84l-6.48,4.84l-0.46,0l0,-10.4l3.16,0l0,4.84l6.48,-4.84l0.46,0zm12.54,0l0,10.4l-3.16,0l0,-2.62l-1.54,0l-2.5,2.62l-3.62,0l2.9,-3.08c-1.38,-0.62 -2.38,-1.8 -2.38,-3.44c0,-2.42 2.24,-3.88 4.62,-3.88l5.68,0zm-5.66,2.76c-0.9,0 -1.58,0.4 -1.58,1.12c0,0.74 0.68,1.16 1.58,1.16l2.5,0l0,-2.28l-2.5,0z"/>
   </g>
  </g>
 </g>
</svg>