
        <svg xmlns="http://www.w3.org/2000/svg" xmlns:xlink="http://www.w3.org/1999/xlink" version="1.1" width="3198.049183289035" 
        height="858.0010219634347" viewBox="0 0 3198.049183289035 858.0010219634347">
			<rect fill="#ffffff" width="3198.049183289035" height="858.0010219634347"/>
			<g transform="scale(9.902459164451782) translate(10, 10)">
				<defs id="SvgjsDefs1292"></defs><g id="SvgjsG1293" featureKey="ewgXDI-0" transform="matrix(3.1590723991394043,0,0,3.1590723991394043,-1.895440884685776,0.24154369003624865)" fill="#6356e5"><path d="M12.9 17.240000000000002 l1.66 0 l0 3.78 l-3.18 0 l0 -1.02 l-7.62 0 l0 1.02 l-3.16 0 l0 -3.78 l1.4 0 c0.84 -1.2 0.82 -3.22 0.82 -5.64 l0 -2 l3.16 0 l6.92 0 l0 7.64 z M5.12 17.240000000000002 l4.62 0 l0 -4.88 l-3.76 0 c0 2.08 -0.08 3.82 -0.86 4.88 z M26.28 9.6 l0 10.4 l-3.16 0 l0 -4.84 l-6.48 4.84 l-0.46 0 l0 -10.4 l3.16 0 l0 4.84 l6.48 -4.84 l0.46 0 z M35.04 9.6 l3.16 0 l0 10.4 l-3.16 0 l0 -3.6 l-3.56 0 l0 3.6 l-3.16 0 l0 -10.4 l3.16 0 l0 4.04 l3.56 0 l0 -4.04 z M47.72 9.6 l3.16 0 l0 10.4 l-3.16 0 l0 -1.04 c-0.14 0.36 -1.08 1.24 -2.68 1.24 c-2.38 0 -5.12 -1.7 -5.12 -5.42 c0 -3.58 2.74 -5.36 5.12 -5.36 c1.6 0 2.54 0.92 2.68 1.14 l0 -0.96 z M45.5 17.42 c1.3 0 2.36 -0.9 2.36 -2.64 c0 -1.68 -1.06 -2.58 -2.36 -2.58 c-1.36 0 -2.52 0.92 -2.52 2.58 c0 1.72 1.16 2.64 2.52 2.64 z M58.04 9.42 c1.9 0 3.5 0.8 4.48 2.48 l-2.4 1.14 c-0.52 -0.44 -0.94 -0.84 -2.04 -0.84 c-1.2 0 -2.42 0.92 -2.42 2.62 c0 1.68 1.22 2.56 2.42 2.56 c1.1 0 1.52 -0.36 2.04 -0.8 l2.44 1.14 c-1.02 1.68 -2.58 2.44 -4.52 2.44 c-2.32 0 -5.44 -1.66 -5.44 -5.34 c0 -3.62 3.12 -5.4 5.44 -5.4 z M72.24 9.6 l0 2.76 l-2.68 0 l0 7.64 l-3.16 0 l0 -7.64 l-2.64 0 l0 -2.76 l5.8 0 l2.68 0 z M83.96000000000001 9.6 l0 10.4 l-3.16 0 l0 -4.84 l-6.48 4.84 l-0.46 0 l0 -10.4 l3.16 0 l0 4.84 l6.48 -4.84 l0.46 0 z M96.5 9.6 l0 10.4 l-3.16 0 l0 -2.62 l-1.54 0 l-2.5 2.62 l-3.62 0 l2.9 -3.08 c-1.38 -0.62 -2.38 -1.8 -2.38 -3.44 c0 -2.42 2.24 -3.88 4.62 -3.88 l5.68 0 z M90.84 12.36 c-0.9 0 -1.58 0.4 -1.58 1.12 c0 0.74 0.68 1.16 1.58 1.16 l2.5 0 l0 -2.28 l-2.5 0 z"></path></g>
			</g>
		</svg>
	